<svg xmlns="http://www.w3.org/2000/svg" width="512" height="512" viewBox="0 0 512 512">
  <defs>
    <linearGradient id="bg" x1="0" y1="0" x2="1" y2="1">
      <stop offset="0" stop-color="#0b0f1c"/>
      <stop offset="1" stop-color="#161e33"/>
    </linearGradient>
    <linearGradient id="accent" x1="0" y1="0" x2="1" y2="1">
      <stop offset="0" stop-color="#9b86ff"/>
      <stop offset="1" stop-color="#27d6ff"/>
    </linearGradient>
  </defs>
  <rect width="512" height="512" rx="112" fill="url(#bg)"/>
  <circle cx="256" cy="220" r="150" fill="url(#accent)" opacity="0.16"/>
  <!-- gamepad -->
  <g fill="none" stroke="url(#accent)" stroke-width="22" stroke-linecap="round" stroke-linejoin="round">
    <path d="M165 300h182c34 0 60-30 53-63l-18-86c-6-28-31-48-60-48H190c-29 0-54 20-60 48l-18 86c-7 33 19 63 53 63z"/>
    <line x1="180" y1="190" x2="180" y2="234"/>
    <line x1="158" y1="212" x2="202" y2="212"/>
  </g>
  <circle cx="330" cy="200" r="13" fill="#27d6ff"/>
  <circle cx="360" cy="230" r="13" fill="#9b86ff"/>
  <text x="256" y="430" font-family="Inter, sans-serif" font-size="58" font-weight="800" fill="#eef2ff" text-anchor="middle">NEXTGEN</text>
</svg>
